# Tiled2Unity generated file. Do not modify by hand.
# Wavefront file for 'forest1_mesh_0007.obj'

# Vertices (Count = 168)
v -8 -1 0
v -9 -1 0
v -9 0 0
v -8 0 0
v -9 -1 0
v -10 -1 0
v -10 0 0
v -9 0 0
v -10 -1 0
v -11 -1 0
v -11 0 0
v -10 0 0
v -2 -2 0
v -3 -2 0
v -3 -1 0
v -2 -1 0
v -3 -2 0
v -4 -2 0
v -4 -1 0
v -3 -1 0
v -4 -2 0
v -5 -2 0
v -5 -1 0
v -4 -1 0
v -8 -2 0
v -9 -2 0
v -9 -1 0
v -8 -1 0
v -9 -2 0
v -10 -2 0
v -10 -1 0
v -9 -1 0
v -10 -2 0
v -11 -2 0
v -11 -1 0
v -10 -1 0
v -2 -3 0
v -3 -3 0
v -3 -2 0
v -2 -2 0
v -3 -3 0
v -4 -3 0
v -4 -2 0
v -3 -2 0
v -4 -3 0
v -5 -3 0
v -5 -2 0
v -4 -2 0
v -2 -4 0
v -3 -4 0
v -3 -3 0
v -2 -3 0
v -3 -4 0
v -4 -4 0
v -4 -3 0
v -3 -3 0
v -4 -4 0
v -5 -4 0
v -5 -3 0
v -4 -3 0
v -11 -5 0
v -12 -5 0
v -12 -4 0
v -11 -4 0
v -12 -5 0
v -13 -5 0
v -13 -4 0
v -12 -4 0
v -13 -5 0
v -14 -5 0
v -14 -4 0
v -13 -4 0
v -12 -8 0
v -13 -8 0
v -13 -7 0
v -12 -7 0
v -13 -8 0
v -14 -8 0
v -14 -7 0
v -13 -7 0
v -14 -8 0
v -15 -8 0
v -15 -7 0
v -14 -7 0
v -12 -9 0
v -13 -9 0
v -13 -8 0
v -12 -8 0
v -13 -9 0
v -14 -9 0
v -14 -8 0
v -13 -8 0
v -14 -9 0
v -15 -9 0
v -15 -8 0
v -14 -8 0
v -12 -10 0
v -13 -10 0
v -13 -9 0
v -12 -9 0
v -13 -10 0
v -14 -10 0
v -14 -9 0
v -13 -9 0
v -14 -10 0
v -15 -10 0
v -15 -9 0
v -14 -9 0
v -8 -12 0
v -9 -12 0
v -9 -11 0
v -8 -11 0
v -9 -12 0
v -10 -12 0
v -10 -11 0
v -9 -11 0
v -10 -12 0
v -11 -12 0
v -11 -11 0
v -10 -11 0
v -11 -12 0
v -12 -12 0
v -12 -11 0
v -11 -11 0
v -12 -12 0
v -13 -12 0
v -13 -11 0
v -12 -11 0
v -13 -12 0
v -14 -12 0
v -14 -11 0
v -13 -11 0
v -8 -13 0
v -9 -13 0
v -9 -12 0
v -8 -12 0
v -9 -13 0
v -10 -13 0
v -10 -12 0
v -9 -12 0
v -10 -13 0
v -11 -13 0
v -11 -12 0
v -10 -12 0
v -8 -14 0
v -9 -14 0
v -9 -13 0
v -8 -13 0
v -9 -14 0
v -10 -14 0
v -10 -13 0
v -9 -13 0
v -10 -14 0
v -11 -14 0
v -11 -13 0
v -10 -13 0
v 0 -15 0
v -1 -15 0
v -1 -14 0
v 0 -14 0
v -1 -15 0
v -2 -15 0
v -2 -14 0
v -1 -14 0
v -2 -15 0
v -3 -15 0
v -3 -14 0
v -2 -14 0

# Texture cooridinates (Count = 22)
vt 0.2307692 0.5384616
vt 0.3076923 0.5384616
vt 0.3076923 0.6153846
vt 0.2307692 0.6153846
vt 0.3846154 0.5384616
vt 0.3846154 0.6153846
vt 0.4615385 0.5384616
vt 0.4615385 0.6153846
vt 0.3076923 0.6923077
vt 0.2307692 0.6923077
vt 0.3846154 0.6923077
vt 0.4615385 0.6923077
vt 0.2307692 0.4615384
vt 0.3076923 0.4615384
vt 0.3846154 0.4615384
vt 0.4615385 0.4615384
vt 0 0.4615384
vt 0.07692308 0.4615384
vt 0.07692308 0.5384616
vt 0 0.5384616
vt 0.1538462 0.4615384
vt 0.1538462 0.5384616

# Normal
vn 0 0 -1

# Mesh description
g forest1_mesh_0007

# Faces
f 1/1/1 2/2/1 3/3/1 4/4/1
f 5/2/1 6/5/1 7/6/1 8/3/1
f 9/5/1 10/7/1 11/8/1 12/6/1
f 13/4/1 14/3/1 15/9/1 16/10/1
f 17/3/1 18/6/1 19/11/1 20/9/1
f 21/6/1 22/8/1 23/12/1 24/11/1
f 25/13/1 26/14/1 27/2/1 28/1/1
f 29/14/1 30/15/1 31/5/1 32/2/1
f 33/15/1 34/16/1 35/7/1 36/5/1
f 37/1/1 38/2/1 39/3/1 40/4/1
f 41/2/1 42/5/1 43/6/1 44/3/1
f 45/5/1 46/7/1 47/8/1 48/6/1
f 49/13/1 50/14/1 51/2/1 52/1/1
f 53/14/1 54/15/1 55/5/1 56/2/1
f 57/15/1 58/16/1 59/7/1 60/5/1
f 61/17/1 62/18/1 63/19/1 64/20/1
f 65/18/1 66/21/1 67/22/1 68/19/1
f 69/21/1 70/13/1 71/1/1 72/22/1
f 73/4/1 74/3/1 75/9/1 76/10/1
f 77/3/1 78/6/1 79/11/1 80/9/1
f 81/6/1 82/8/1 83/12/1 84/11/1
f 85/1/1 86/2/1 87/3/1 88/4/1
f 89/2/1 90/5/1 91/6/1 92/3/1
f 93/5/1 94/7/1 95/8/1 96/6/1
f 97/13/1 98/14/1 99/2/1 100/1/1
f 101/14/1 102/15/1 103/5/1 104/2/1
f 105/15/1 106/16/1 107/7/1 108/5/1
f 109/4/1 110/3/1 111/9/1 112/10/1
f 113/3/1 114/6/1 115/11/1 116/9/1
f 117/6/1 118/8/1 119/12/1 120/11/1
f 121/17/1 122/18/1 123/19/1 124/20/1
f 125/18/1 126/21/1 127/22/1 128/19/1
f 129/21/1 130/13/1 131/1/1 132/22/1
f 133/1/1 134/2/1 135/3/1 136/4/1
f 137/2/1 138/5/1 139/6/1 140/3/1
f 141/5/1 142/7/1 143/8/1 144/6/1
f 145/13/1 146/14/1 147/2/1 148/1/1
f 149/14/1 150/15/1 151/5/1 152/2/1
f 153/15/1 154/16/1 155/7/1 156/5/1
f 157/17/1 158/18/1 159/19/1 160/20/1
f 161/18/1 162/21/1 163/22/1 164/19/1
f 165/21/1 166/13/1 167/1/1 168/22/1

