# Tiled2Unity generated file. Do not modify by hand.
# Wavefront file for 'forest1_mesh_0004.obj'

# Vertices (Count = 16)
v -1 -4 0
v -2 -4 0
v -2 -3 0
v -1 -3 0
v -6 -6 0
v -7 -6 0
v -7 -5 0
v -6 -5 0
v -5 -14 0
v -6 -14 0
v -6 -13 0
v -5 -13 0
v -8 -16 0
v -9 -16 0
v -9 -15 0
v -8 -15 0

# Texture cooridinates (Count = 10)
vt 0.125 0.75
vt 0.1875 0.75
vt 0.1875 0.8125
vt 0.125 0.8125
vt 0.0625 0.75
vt 0.0625 0.8125
vt 0.3125 0.75
vt 0.375 0.75
vt 0.375 0.8125
vt 0.3125 0.8125

# Normal
vn 0 0 -1

# Mesh description
g forest1_mesh_0004

# Faces
f 1/1/1 2/2/1 3/3/1 4/4/1
f 5/1/1 6/2/1 7/3/1 8/4/1
f 9/5/1 10/1/1 11/4/1 12/6/1
f 13/7/1 14/8/1 15/9/1 16/10/1

