# Tiled2Unity generated file. Do not modify by hand.
# Wavefront file for 'Room2_mesh_0006.obj'

# Vertices (Count = 16)
v -19 -12 0
v -20 -12 0
v -20 -11 0
v -19 -11 0
v -19 -13 0
v -20 -13 0
v -20 -12 0
v -19 -12 0
v -19 -14 0
v -20 -14 0
v -20 -13 0
v -19 -13 0
v -19 -15 0
v -20 -15 0
v -20 -14 0
v -19 -14 0

# Texture cooridinates (Count = 10)
vt 0 0.75
vt 0.5 0.75
vt 0.5 1
vt 0 1
vt 0 0.5
vt 0.5 0.5
vt 0 0.25
vt 0.5 0.25
vt 0 0
vt 0.5 0

# Normal
vn 0 0 -1

# Mesh description
g Room2_mesh_0006

# Faces
f 1/1/1 2/2/1 3/3/1 4/4/1
f 5/5/1 6/6/1 7/2/1 8/1/1
f 9/7/1 10/8/1 11/6/1 12/5/1
f 13/9/1 14/10/1 15/8/1 16/7/1

