# Tiled2Unity generated file. Do not modify by hand.
# Wavefront file for 'lava1_mesh_0003.obj'

# Vertices (Count = 240)
v -1 -2 0
v -2 -2 0
v -2 -1 0
v -1 -1 0
v -2 -2 0
v -3 -2 0
v -3 -1 0
v -2 -1 0
v -3 -2 0
v -4 -2 0
v -4 -1 0
v -3 -1 0
v -4 -2 0
v -5 -2 0
v -5 -1 0
v -4 -1 0
v -5 -2 0
v -6 -2 0
v -6 -1 0
v -5 -1 0
v -6 -2 0
v -7 -2 0
v -7 -1 0
v -6 -1 0
v -7 -2 0
v -8 -2 0
v -8 -1 0
v -7 -1 0
v -8 -2 0
v -9 -2 0
v -9 -1 0
v -8 -1 0
v -14 -2 0
v -15 -2 0
v -15 -1 0
v -14 -1 0
v -1 -3 0
v -2 -3 0
v -2 -2 0
v -1 -2 0
v -2 -3 0
v -3 -3 0
v -3 -2 0
v -2 -2 0
v -3 -3 0
v -4 -3 0
v -4 -2 0
v -3 -2 0
v -4 -3 0
v -5 -3 0
v -5 -2 0
v -4 -2 0
v -5 -3 0
v -6 -3 0
v -6 -2 0
v -5 -2 0
v -6 -3 0
v -7 -3 0
v -7 -2 0
v -6 -2 0
v -7 -3 0
v -8 -3 0
v -8 -2 0
v -7 -2 0
v -14 -3 0
v -15 -3 0
v -15 -2 0
v -14 -2 0
v -1 -4 0
v -2 -4 0
v -2 -3 0
v -1 -3 0
v -2 -4 0
v -3 -4 0
v -3 -3 0
v -2 -3 0
v -3 -4 0
v -4 -4 0
v -4 -3 0
v -3 -3 0
v -4 -4 0
v -5 -4 0
v -5 -3 0
v -4 -3 0
v -5 -4 0
v -6 -4 0
v -6 -3 0
v -5 -3 0
v -14 -4 0
v -15 -4 0
v -15 -3 0
v -14 -3 0
v -1 -5 0
v -2 -5 0
v -2 -4 0
v -1 -4 0
v -2 -5 0
v -3 -5 0
v -3 -4 0
v -2 -4 0
v -3 -5 0
v -4 -5 0
v -4 -4 0
v -3 -4 0
v -14 -5 0
v -15 -5 0
v -15 -4 0
v -14 -4 0
v -13 -6 0
v -14 -6 0
v -14 -5 0
v -13 -5 0
v -14 -6 0
v -15 -6 0
v -15 -5 0
v -14 -5 0
v -12 -7 0
v -13 -7 0
v -13 -6 0
v -12 -6 0
v -13 -7 0
v -14 -7 0
v -14 -6 0
v -13 -6 0
v -14 -7 0
v -15 -7 0
v -15 -6 0
v -14 -6 0
v -12 -8 0
v -13 -8 0
v -13 -7 0
v -12 -7 0
v -13 -8 0
v -14 -8 0
v -14 -7 0
v -13 -7 0
v -14 -8 0
v -15 -8 0
v -15 -7 0
v -14 -7 0
v -12 -9 0
v -13 -9 0
v -13 -8 0
v -12 -8 0
v -13 -9 0
v -14 -9 0
v -14 -8 0
v -13 -8 0
v -14 -9 0
v -15 -9 0
v -15 -8 0
v -14 -8 0
v -12 -10 0
v -13 -10 0
v -13 -9 0
v -12 -9 0
v -13 -10 0
v -14 -10 0
v -14 -9 0
v -13 -9 0
v -14 -10 0
v -15 -10 0
v -15 -9 0
v -14 -9 0
v -12 -11 0
v -13 -11 0
v -13 -10 0
v -12 -10 0
v -13 -11 0
v -14 -11 0
v -14 -10 0
v -13 -10 0
v -14 -11 0
v -15 -11 0
v -15 -10 0
v -14 -10 0
v -11 -12 0
v -12 -12 0
v -12 -11 0
v -11 -11 0
v -12 -12 0
v -13 -12 0
v -13 -11 0
v -12 -11 0
v -13 -12 0
v -14 -12 0
v -14 -11 0
v -13 -11 0
v -14 -12 0
v -15 -12 0
v -15 -11 0
v -14 -11 0
v -11 -13 0
v -12 -13 0
v -12 -12 0
v -11 -12 0
v -12 -13 0
v -13 -13 0
v -13 -12 0
v -12 -12 0
v -13 -13 0
v -14 -13 0
v -14 -12 0
v -13 -12 0
v -14 -13 0
v -15 -13 0
v -15 -12 0
v -14 -12 0
v -11 -14 0
v -12 -14 0
v -12 -13 0
v -11 -13 0
v -12 -14 0
v -13 -14 0
v -13 -13 0
v -12 -13 0
v -13 -14 0
v -14 -14 0
v -14 -13 0
v -13 -13 0
v -14 -14 0
v -15 -14 0
v -15 -13 0
v -14 -13 0
v -10 -15 0
v -11 -15 0
v -11 -14 0
v -10 -14 0
v -11 -15 0
v -12 -15 0
v -12 -14 0
v -11 -14 0
v -12 -15 0
v -13 -15 0
v -13 -14 0
v -12 -14 0
v -13 -15 0
v -14 -15 0
v -14 -14 0
v -13 -14 0

# Texture cooridinates (Count = 25)
vt 0 0.5
vt 0.3333333 0.5
vt 0.3333333 0.6666666
vt 0 0.6666666
vt 0.6666667 0.5
vt 0.6666667 0.6666666
vt 1 0.6666666
vt 1 0.8333333
vt 0.6666667 0.8333333
vt 0.6666667 0
vt 1 0
vt 1 0.1666667
vt 0.6666667 0.1666667
vt 0.3333333 0.3333333
vt 0.6666667 0.3333333
vt 0.3333333 0.8333333
vt 0.6666667 1
vt 0.3333333 1
vt 1 0.3333333
vt 0.3333333 0
vt 0.3333333 0.1666667
vt 0 0
vt 0 0.1666667
vt 0 0.3333333
vt 1 0.5

# Normal
vn 0 0 -1

# Mesh description
g lava1_mesh_0003

# Faces
f 1/1/1 2/2/1 3/3/1 4/4/1
f 5/2/1 6/5/1 7/6/1 8/3/1
f 9/6/1 10/7/1 11/8/1 12/9/1
f 13/10/1 14/11/1 15/12/1 16/13/1
f 17/10/1 18/11/1 19/12/1 20/13/1
f 21/14/1 22/15/1 23/5/1 24/2/1
f 25/16/1 26/9/1 27/17/1 28/18/1
f 29/13/1 30/12/1 31/19/1 32/15/1
f 33/1/1 34/2/1 35/3/1 36/4/1
f 37/6/1 38/7/1 39/8/1 40/9/1
f 41/20/1 42/10/1 43/13/1 44/21/1
f 45/20/1 46/10/1 47/13/1 48/21/1
f 49/22/1 50/20/1 51/21/1 52/23/1
f 53/16/1 54/9/1 55/17/1 56/18/1
f 57/21/1 58/13/1 59/15/1 60/14/1
f 61/13/1 62/12/1 63/19/1 64/15/1
f 65/24/1 66/14/1 67/2/1 68/1/1
f 69/10/1 70/11/1 71/12/1 72/13/1
f 73/10/1 74/11/1 75/12/1 76/13/1
f 77/16/1 78/9/1 79/17/1 80/18/1
f 81/21/1 82/13/1 83/15/1 84/14/1
f 85/13/1 86/12/1 87/19/1 88/15/1
f 89/24/1 90/14/1 91/2/1 92/1/1
f 93/21/1 94/13/1 95/15/1 96/14/1
f 97/21/1 98/13/1 99/15/1 100/14/1
f 101/13/1 102/12/1 103/19/1 104/15/1
f 105/24/1 106/14/1 107/2/1 108/1/1
f 109/1/1 110/2/1 111/3/1 112/4/1
f 113/6/1 114/7/1 115/8/1 116/9/1
f 117/1/1 118/2/1 119/3/1 120/4/1
f 121/6/1 122/7/1 123/8/1 124/9/1
f 125/14/1 126/15/1 127/5/1 128/2/1
f 129/24/1 130/14/1 131/2/1 132/1/1
f 133/14/1 134/15/1 135/5/1 136/2/1
f 137/22/1 138/20/1 139/21/1 140/23/1
f 141/24/1 142/14/1 143/2/1 144/1/1
f 145/14/1 146/15/1 147/5/1 148/2/1
f 149/14/1 150/15/1 151/5/1 152/2/1
f 153/24/1 154/14/1 155/2/1 156/1/1
f 157/14/1 158/15/1 159/5/1 160/2/1
f 161/14/1 162/15/1 163/5/1 164/2/1
f 165/24/1 166/14/1 167/2/1 168/1/1
f 169/14/1 170/15/1 171/5/1 172/2/1
f 173/14/1 174/15/1 175/5/1 176/2/1
f 177/1/1 178/2/1 179/3/1 180/4/1
f 181/6/1 182/7/1 183/8/1 184/9/1
f 185/14/1 186/15/1 187/5/1 188/2/1
f 189/22/1 190/20/1 191/21/1 192/23/1
f 193/24/1 194/14/1 195/2/1 196/1/1
f 197/14/1 198/15/1 199/5/1 200/2/1
f 201/14/1 202/15/1 203/5/1 204/2/1
f 205/16/1 206/9/1 207/17/1 208/18/1
f 209/24/1 210/14/1 211/2/1 212/1/1
f 213/14/1 214/15/1 215/5/1 216/2/1
f 217/16/1 218/9/1 219/17/1 220/18/1
f 221/13/1 222/12/1 223/19/1 224/15/1
f 225/1/1 226/2/1 227/3/1 228/4/1
f 229/6/1 230/7/1 231/8/1 232/9/1
f 233/22/1 234/20/1 235/21/1 236/23/1
f 237/15/1 238/19/1 239/25/1 240/5/1

