# Tiled2Unity generated file. Do not modify by hand.
# Wavefront file for 'Mapka-las_mesh_0011.obj'

# Vertices (Count = 24)
v -28 -25 0
v -29 -25 0
v -29 -24 0
v -28 -24 0
v -29 -25 0
v -30 -25 0
v -30 -24 0
v -29 -24 0
v -28 -26 0
v -29 -26 0
v -29 -25 0
v -28 -25 0
v -29 -26 0
v -30 -26 0
v -30 -25 0
v -29 -25 0
v -28 -27 0
v -29 -27 0
v -29 -26 0
v -28 -26 0
v -29 -27 0
v -30 -27 0
v -30 -26 0
v -29 -26 0

# Texture cooridinates (Count = 12)
vt 0.08333334 0.3333333
vt 0.1666667 0.3333333
vt 0.1666667 0.4444444
vt 0.08333334 0.4444444
vt 0.25 0.3333333
vt 0.25 0.4444444
vt 0.08333334 0.2222222
vt 0.1666667 0.2222222
vt 0.25 0.2222222
vt 0.08333334 0.1111111
vt 0.1666667 0.1111111
vt 0.25 0.1111111

# Normal
vn 0 0 -1

# Mesh description
g Mapka-las_mesh_0011

# Faces
f 1/1/1 2/2/1 3/3/1 4/4/1
f 5/2/1 6/5/1 7/6/1 8/3/1
f 9/7/1 10/8/1 11/2/1 12/1/1
f 13/8/1 14/9/1 15/5/1 16/2/1
f 17/10/1 18/11/1 19/8/1 20/7/1
f 21/11/1 22/12/1 23/9/1 24/8/1

