# Tiled2Unity generated file. Do not modify by hand.
# Wavefront file for 'Mapka-las_mesh_0003.obj'

# Vertices (Count = 96)
v -2 -2 0
v -3 -2 0
v -3 -1 0
v -2 -1 0
v -11 -5 0
v -12 -5 0
v -12 -4 0
v -11 -4 0
v -24 -6 0
v -25 -6 0
v -25 -5 0
v -24 -5 0
v -7 -8 0
v -8 -8 0
v -8 -7 0
v -7 -7 0
v 0 -9 0
v -1 -9 0
v -1 -8 0
v 0 -8 0
v -9 -10 0
v -10 -10 0
v -10 -9 0
v -9 -9 0
v -15 -10 0
v -16 -10 0
v -16 -9 0
v -15 -9 0
v -19 -11 0
v -20 -11 0
v -20 -10 0
v -19 -10 0
v -11 -13 0
v -12 -13 0
v -12 -12 0
v -11 -12 0
v -16 -13 0
v -17 -13 0
v -17 -12 0
v -16 -12 0
v -17 -13 0
v -18 -13 0
v -18 -12 0
v -17 -12 0
v -11 -14 0
v -12 -14 0
v -12 -13 0
v -11 -13 0
v -21 -14 0
v -22 -14 0
v -22 -13 0
v -21 -13 0
v -22 -14 0
v -23 -14 0
v -23 -13 0
v -22 -13 0
v -2 -17 0
v -3 -17 0
v -3 -16 0
v -2 -16 0
v -7 -17 0
v -8 -17 0
v -8 -16 0
v -7 -16 0
v -4 -21 0
v -5 -21 0
v -5 -20 0
v -4 -20 0
v -21 -22 0
v -22 -22 0
v -22 -21 0
v -21 -21 0
v -27 -23 0
v -28 -23 0
v -28 -22 0
v -27 -22 0
v -12 -26 0
v -13 -26 0
v -13 -25 0
v -12 -25 0
v -4 -30 0
v -5 -30 0
v -5 -29 0
v -4 -29 0
v -6 -30 0
v -7 -30 0
v -7 -29 0
v -6 -29 0
v -16 -30 0
v -17 -30 0
v -17 -29 0
v -16 -29 0
v -29 -30 0
v -30 -30 0
v -30 -29 0
v -29 -29 0

# Texture cooridinates (Count = 6)
vt 0 0
vt 0.5 0
vt 0.5 1
vt 0 1
vt 1 0
vt 1 1

# Normal
vn 0 0 -1

# Mesh description
g Mapka-las_mesh_0003

# Faces
f 1/1/1 2/2/1 3/3/1 4/4/1
f 5/2/1 6/5/1 7/6/1 8/3/1
f 9/2/1 10/5/1 11/6/1 12/3/1
f 13/2/1 14/5/1 15/6/1 16/3/1
f 17/2/1 18/5/1 19/6/1 20/3/1
f 21/1/1 22/2/1 23/3/1 24/4/1
f 25/2/1 26/5/1 27/6/1 28/3/1
f 29/1/1 30/2/1 31/3/1 32/4/1
f 33/2/1 34/5/1 35/6/1 36/3/1
f 37/1/1 38/2/1 39/3/1 40/4/1
f 41/2/1 42/5/1 43/6/1 44/3/1
f 45/1/1 46/2/1 47/3/1 48/4/1
f 49/2/1 50/5/1 51/6/1 52/3/1
f 53/1/1 54/2/1 55/3/1 56/4/1
f 57/1/1 58/2/1 59/3/1 60/4/1
f 61/2/1 62/5/1 63/6/1 64/3/1
f 65/2/1 66/5/1 67/6/1 68/3/1
f 69/2/1 70/5/1 71/6/1 72/3/1
f 73/1/1 74/2/1 75/3/1 76/4/1
f 77/2/1 78/5/1 79/6/1 80/3/1
f 81/1/1 82/2/1 83/3/1 84/4/1
f 85/1/1 86/2/1 87/3/1 88/4/1
f 89/2/1 90/5/1 91/6/1 92/3/1
f 93/2/1 94/5/1 95/6/1 96/3/1

