# Tiled2Unity generated file. Do not modify by hand.
# Wavefront file for 'Mapka-las_mesh_0006.obj'

# Vertices (Count = 16)
v -24 -25 0
v -25 -25 0
v -25 -24 0
v -24 -24 0
v -25 -25 0
v -26 -25 0
v -26 -24 0
v -25 -24 0
v -24 -26 0
v -25 -26 0
v -25 -25 0
v -24 -25 0
v -25 -26 0
v -26 -26 0
v -26 -25 0
v -25 -25 0

# Texture cooridinates (Count = 9)
vt 0.75 0.6875
vt 0.8125 0.6875
vt 0.8125 0.75
vt 0.75 0.75
vt 0.875 0.6875
vt 0.875 0.75
vt 0.75 0.625
vt 0.8125 0.625
vt 0.875 0.625

# Normal
vn 0 0 -1

# Mesh description
g Mapka-las_mesh_0006

# Faces
f 1/1/1 2/2/1 3/3/1 4/4/1
f 5/2/1 6/5/1 7/6/1 8/3/1
f 9/7/1 10/8/1 11/2/1 12/1/1
f 13/8/1 14/9/1 15/5/1 16/2/1

