# Tiled2Unity generated file. Do not modify by hand.
# Wavefront file for 'Mapka-las_mesh_0009.obj'

# Vertices (Count = 468)
v -11 -1 0
v -12 -1 0
v -12 0 0
v -11 0 0
v -12 -1 0
v -13 -1 0
v -13 0 0
v -12 0 0
v -13 -1 0
v -14 -1 0
v -14 0 0
v -13 0 0
v -22 -1 0
v -23 -1 0
v -23 0 0
v -22 0 0
v -23 -1 0
v -24 -1 0
v -24 0 0
v -23 0 0
v -24 -1 0
v -25 -1 0
v -25 0 0
v -24 0 0
v -16 -2 0
v -17 -2 0
v -17 -1 0
v -16 -1 0
v -17 -2 0
v -18 -2 0
v -18 -1 0
v -17 -1 0
v -18 -2 0
v -19 -2 0
v -19 -1 0
v -18 -1 0
v -22 -2 0
v -23 -2 0
v -23 -1 0
v -22 -1 0
v -23 -2 0
v -24 -2 0
v -24 -1 0
v -23 -1 0
v -24 -2 0
v -25 -2 0
v -25 -1 0
v -24 -1 0
v -3 -3 0
v -4 -3 0
v -4 -2 0
v -3 -2 0
v -4 -3 0
v -5 -3 0
v -5 -2 0
v -4 -2 0
v -5 -3 0
v -6 -3 0
v -6 -2 0
v -5 -2 0
v -16 -3 0
v -17 -3 0
v -17 -2 0
v -16 -2 0
v -17 -3 0
v -18 -3 0
v -18 -2 0
v -17 -2 0
v -18 -3 0
v -19 -3 0
v -19 -2 0
v -18 -2 0
v -11 -4 0
v -12 -4 0
v -12 -3 0
v -11 -3 0
v -12 -4 0
v -13 -4 0
v -13 -3 0
v -12 -3 0
v -13 -4 0
v -14 -4 0
v -14 -3 0
v -13 -3 0
v -16 -4 0
v -17 -4 0
v -17 -3 0
v -16 -3 0
v -17 -4 0
v -18 -4 0
v -18 -3 0
v -17 -3 0
v -18 -4 0
v -19 -4 0
v -19 -3 0
v -18 -3 0
v -11 -5 0
v -12 -5 0
v -12 -4 0
v -11 -4 0
v -12 -5 0
v -13 -5 0
v -13 -4 0
v -12 -4 0
v -13 -5 0
v -14 -5 0
v -14 -4 0
v -13 -4 0
v -25 -5 0
v -26 -5 0
v -26 -4 0
v -25 -4 0
v -26 -5 0
v -27 -5 0
v -27 -4 0
v -26 -4 0
v -27 -5 0
v -28 -5 0
v -28 -4 0
v -27 -4 0
v -1 -6 0
v -2 -6 0
v -2 -5 0
v -1 -5 0
v -2 -6 0
v -3 -6 0
v -3 -5 0
v -2 -5 0
v -3 -6 0
v -4 -6 0
v -4 -5 0
v -3 -5 0
v -7 -6 0
v -8 -6 0
v -8 -5 0
v -7 -5 0
v -8 -6 0
v -9 -6 0
v -9 -5 0
v -8 -5 0
v -9 -6 0
v -10 -6 0
v -10 -5 0
v -9 -5 0
v -11 -6 0
v -12 -6 0
v -12 -5 0
v -11 -5 0
v -12 -6 0
v -13 -6 0
v -13 -5 0
v -12 -5 0
v -13 -6 0
v -14 -6 0
v -14 -5 0
v -13 -5 0
v -7 -7 0
v -8 -7 0
v -8 -6 0
v -7 -6 0
v -8 -7 0
v -9 -7 0
v -9 -6 0
v -8 -6 0
v -9 -7 0
v -10 -7 0
v -10 -6 0
v -9 -6 0
v -7 -8 0
v -8 -8 0
v -8 -7 0
v -7 -7 0
v -8 -8 0
v -9 -8 0
v -9 -7 0
v -8 -7 0
v -9 -8 0
v -10 -8 0
v -10 -7 0
v -9 -7 0
v -26 -8 0
v -27 -8 0
v -27 -7 0
v -26 -7 0
v -27 -8 0
v -28 -8 0
v -28 -7 0
v -27 -7 0
v -28 -8 0
v -29 -8 0
v -29 -7 0
v -28 -7 0
v -26 -9 0
v -27 -9 0
v -27 -8 0
v -26 -8 0
v -27 -9 0
v -28 -9 0
v -28 -8 0
v -27 -8 0
v -28 -9 0
v -29 -9 0
v -29 -8 0
v -28 -8 0
v -26 -10 0
v -27 -10 0
v -27 -9 0
v -26 -9 0
v -27 -10 0
v -28 -10 0
v -28 -9 0
v -27 -9 0
v -28 -10 0
v -29 -10 0
v -29 -9 0
v -28 -9 0
v -3 -11 0
v -4 -11 0
v -4 -10 0
v -3 -10 0
v -4 -11 0
v -5 -11 0
v -5 -10 0
v -4 -10 0
v -5 -11 0
v -6 -11 0
v -6 -10 0
v -5 -10 0
v -3 -12 0
v -4 -12 0
v -4 -11 0
v -3 -11 0
v -4 -12 0
v -5 -12 0
v -5 -11 0
v -4 -11 0
v -5 -12 0
v -6 -12 0
v -6 -11 0
v -5 -11 0
v -22 -12 0
v -23 -12 0
v -23 -11 0
v -22 -11 0
v -23 -12 0
v -24 -12 0
v -24 -11 0
v -23 -11 0
v -24 -12 0
v -25 -12 0
v -25 -11 0
v -24 -11 0
v -25 -12 0
v -26 -12 0
v -26 -11 0
v -25 -11 0
v -26 -12 0
v -27 -12 0
v -27 -11 0
v -26 -11 0
v -27 -12 0
v -28 -12 0
v -28 -11 0
v -27 -11 0
v -3 -13 0
v -4 -13 0
v -4 -12 0
v -3 -12 0
v -4 -13 0
v -5 -13 0
v -5 -12 0
v -4 -12 0
v -5 -13 0
v -6 -13 0
v -6 -12 0
v -5 -12 0
v -22 -13 0
v -23 -13 0
v -23 -12 0
v -22 -12 0
v -23 -13 0
v -24 -13 0
v -24 -12 0
v -23 -12 0
v -24 -13 0
v -25 -13 0
v -25 -12 0
v -24 -12 0
v -22 -14 0
v -23 -14 0
v -23 -13 0
v -22 -13 0
v -23 -14 0
v -24 -14 0
v -24 -13 0
v -23 -13 0
v -24 -14 0
v -25 -14 0
v -25 -13 0
v -24 -13 0
v -14 -15 0
v -15 -15 0
v -15 -14 0
v -14 -14 0
v -15 -15 0
v -16 -15 0
v -16 -14 0
v -15 -14 0
v -16 -15 0
v -17 -15 0
v -17 -14 0
v -16 -14 0
v -16 -17 0
v -17 -17 0
v -17 -16 0
v -16 -16 0
v -17 -17 0
v -18 -17 0
v -18 -16 0
v -17 -16 0
v -18 -17 0
v -19 -17 0
v -19 -16 0
v -18 -16 0
v -10 -18 0
v -11 -18 0
v -11 -17 0
v -10 -17 0
v -11 -18 0
v -12 -18 0
v -12 -17 0
v -11 -17 0
v -12 -18 0
v -13 -18 0
v -13 -17 0
v -12 -17 0
v -16 -18 0
v -17 -18 0
v -17 -17 0
v -16 -17 0
v -17 -18 0
v -18 -18 0
v -18 -17 0
v -17 -17 0
v -18 -18 0
v -19 -18 0
v -19 -17 0
v -18 -17 0
v -16 -19 0
v -17 -19 0
v -17 -18 0
v -16 -18 0
v -17 -19 0
v -18 -19 0
v -18 -18 0
v -17 -18 0
v -18 -19 0
v -19 -19 0
v -19 -18 0
v -18 -18 0
v -12 -20 0
v -13 -20 0
v -13 -19 0
v -12 -19 0
v -13 -20 0
v -14 -20 0
v -14 -19 0
v -13 -19 0
v -14 -20 0
v -15 -20 0
v -15 -19 0
v -14 -19 0
v -12 -21 0
v -13 -21 0
v -13 -20 0
v -12 -20 0
v -13 -21 0
v -14 -21 0
v -14 -20 0
v -13 -20 0
v -14 -21 0
v -15 -21 0
v -15 -20 0
v -14 -20 0
v -4 -22 0
v -5 -22 0
v -5 -21 0
v -4 -21 0
v -5 -22 0
v -6 -22 0
v -6 -21 0
v -5 -21 0
v -6 -22 0
v -7 -22 0
v -7 -21 0
v -6 -21 0
v -12 -22 0
v -13 -22 0
v -13 -21 0
v -12 -21 0
v -13 -22 0
v -14 -22 0
v -14 -21 0
v -13 -21 0
v -14 -22 0
v -15 -22 0
v -15 -21 0
v -14 -21 0
v -4 -23 0
v -5 -23 0
v -5 -22 0
v -4 -22 0
v -5 -23 0
v -6 -23 0
v -6 -22 0
v -5 -22 0
v -6 -23 0
v -7 -23 0
v -7 -22 0
v -6 -22 0
v -4 -24 0
v -5 -24 0
v -5 -23 0
v -4 -23 0
v -5 -24 0
v -6 -24 0
v -6 -23 0
v -5 -23 0
v -6 -24 0
v -7 -24 0
v -7 -23 0
v -6 -23 0
v -22 -24 0
v -23 -24 0
v -23 -23 0
v -22 -23 0
v -23 -24 0
v -24 -24 0
v -24 -23 0
v -23 -23 0
v -24 -24 0
v -25 -24 0
v -25 -23 0
v -24 -23 0
v -25 -24 0
v -26 -24 0
v -26 -23 0
v -25 -23 0
v -26 -24 0
v -27 -24 0
v -27 -23 0
v -26 -23 0
v -27 -24 0
v -28 -24 0
v -28 -23 0
v -27 -23 0
v -16 -25 0
v -17 -25 0
v -17 -24 0
v -16 -24 0
v -17 -25 0
v -18 -25 0
v -18 -24 0
v -17 -24 0
v -18 -25 0
v -19 -25 0
v -19 -24 0
v -18 -24 0

# Texture cooridinates (Count = 22)
vt 0 0.4615384
vt 0.07692308 0.4615384
vt 0.07692308 0.5384616
vt 0 0.5384616
vt 0.1538462 0.4615384
vt 0.1538462 0.5384616
vt 0.2307692 0.4615384
vt 0.2307692 0.5384616
vt 0.3076923 0.5384616
vt 0.3076923 0.6153846
vt 0.2307692 0.6153846
vt 0.3846154 0.5384616
vt 0.3846154 0.6153846
vt 0.4615385 0.5384616
vt 0.4615385 0.6153846
vt 0.3076923 0.6923077
vt 0.2307692 0.6923077
vt 0.3846154 0.6923077
vt 0.4615385 0.6923077
vt 0.3076923 0.4615384
vt 0.3846154 0.4615384
vt 0.4615385 0.4615384

# Normal
vn 0 0 -1

# Mesh description
g Mapka-las_mesh_0009

# Faces
f 1/1/1 2/2/1 3/3/1 4/4/1
f 5/2/1 6/5/1 7/6/1 8/3/1
f 9/5/1 10/7/1 11/8/1 12/6/1
f 13/8/1 14/9/1 15/10/1 16/11/1
f 17/9/1 18/12/1 19/13/1 20/10/1
f 21/12/1 22/14/1 23/15/1 24/13/1
f 25/11/1 26/10/1 27/16/1 28/17/1
f 29/10/1 30/13/1 31/18/1 32/16/1
f 33/13/1 34/15/1 35/19/1 36/18/1
f 37/7/1 38/20/1 39/9/1 40/8/1
f 41/20/1 42/21/1 43/12/1 44/9/1
f 45/21/1 46/22/1 47/14/1 48/12/1
f 49/1/1 50/2/1 51/3/1 52/4/1
f 53/2/1 54/5/1 55/6/1 56/3/1
f 57/5/1 58/7/1 59/8/1 60/6/1
f 61/8/1 62/9/1 63/10/1 64/11/1
f 65/9/1 66/12/1 67/13/1 68/10/1
f 69/12/1 70/14/1 71/15/1 72/13/1
f 73/11/1 74/10/1 75/16/1 76/17/1
f 77/10/1 78/13/1 79/18/1 80/16/1
f 81/13/1 82/15/1 83/19/1 84/18/1
f 85/7/1 86/20/1 87/9/1 88/8/1
f 89/20/1 90/21/1 91/12/1 92/9/1
f 93/21/1 94/22/1 95/14/1 96/12/1
f 97/8/1 98/9/1 99/10/1 100/11/1
f 101/9/1 102/12/1 103/13/1 104/10/1
f 105/12/1 106/14/1 107/15/1 108/13/1
f 109/1/1 110/2/1 111/3/1 112/4/1
f 113/2/1 114/5/1 115/6/1 116/3/1
f 117/5/1 118/7/1 119/8/1 120/6/1
f 121/1/1 122/2/1 123/3/1 124/4/1
f 125/2/1 126/5/1 127/6/1 128/3/1
f 129/5/1 130/7/1 131/8/1 132/6/1
f 133/11/1 134/10/1 135/16/1 136/17/1
f 137/10/1 138/13/1 139/18/1 140/16/1
f 141/13/1 142/15/1 143/19/1 144/18/1
f 145/7/1 146/20/1 147/9/1 148/8/1
f 149/20/1 150/21/1 151/12/1 152/9/1
f 153/21/1 154/22/1 155/14/1 156/12/1
f 157/8/1 158/9/1 159/10/1 160/11/1
f 161/9/1 162/12/1 163/13/1 164/10/1
f 165/12/1 166/14/1 167/15/1 168/13/1
f 169/7/1 170/20/1 171/9/1 172/8/1
f 173/20/1 174/21/1 175/12/1 176/9/1
f 177/21/1 178/22/1 179/14/1 180/12/1
f 181/11/1 182/10/1 183/16/1 184/17/1
f 185/10/1 186/13/1 187/18/1 188/16/1
f 189/13/1 190/15/1 191/19/1 192/18/1
f 193/8/1 194/9/1 195/10/1 196/11/1
f 197/9/1 198/12/1 199/13/1 200/10/1
f 201/12/1 202/14/1 203/15/1 204/13/1
f 205/7/1 206/20/1 207/9/1 208/8/1
f 209/20/1 210/21/1 211/12/1 212/9/1
f 213/21/1 214/22/1 215/14/1 216/12/1
f 217/11/1 218/10/1 219/16/1 220/17/1
f 221/10/1 222/13/1 223/18/1 224/16/1
f 225/13/1 226/15/1 227/19/1 228/18/1
f 229/8/1 230/9/1 231/10/1 232/11/1
f 233/9/1 234/12/1 235/13/1 236/10/1
f 237/12/1 238/14/1 239/15/1 240/13/1
f 241/11/1 242/10/1 243/16/1 244/17/1
f 245/10/1 246/13/1 247/18/1 248/16/1
f 249/13/1 250/15/1 251/19/1 252/18/1
f 253/1/1 254/2/1 255/3/1 256/4/1
f 257/2/1 258/5/1 259/6/1 260/3/1
f 261/5/1 262/7/1 263/8/1 264/6/1
f 265/7/1 266/20/1 267/9/1 268/8/1
f 269/20/1 270/21/1 271/12/1 272/9/1
f 273/21/1 274/22/1 275/14/1 276/12/1
f 277/8/1 278/9/1 279/10/1 280/11/1
f 281/9/1 282/12/1 283/13/1 284/10/1
f 285/12/1 286/14/1 287/15/1 288/13/1
f 289/7/1 290/20/1 291/9/1 292/8/1
f 293/20/1 294/21/1 295/12/1 296/9/1
f 297/21/1 298/22/1 299/14/1 300/12/1
f 301/1/1 302/2/1 303/3/1 304/4/1
f 305/2/1 306/5/1 307/6/1 308/3/1
f 309/5/1 310/7/1 311/8/1 312/6/1
f 313/11/1 314/10/1 315/16/1 316/17/1
f 317/10/1 318/13/1 319/18/1 320/16/1
f 321/13/1 322/15/1 323/19/1 324/18/1
f 325/1/1 326/2/1 327/3/1 328/4/1
f 329/2/1 330/5/1 331/6/1 332/3/1
f 333/5/1 334/7/1 335/8/1 336/6/1
f 337/8/1 338/9/1 339/10/1 340/11/1
f 341/9/1 342/12/1 343/13/1 344/10/1
f 345/12/1 346/14/1 347/15/1 348/13/1
f 349/7/1 350/20/1 351/9/1 352/8/1
f 353/20/1 354/21/1 355/12/1 356/9/1
f 357/21/1 358/22/1 359/14/1 360/12/1
f 361/11/1 362/10/1 363/16/1 364/17/1
f 365/10/1 366/13/1 367/18/1 368/16/1
f 369/13/1 370/15/1 371/19/1 372/18/1
f 373/8/1 374/9/1 375/10/1 376/11/1
f 377/9/1 378/12/1 379/13/1 380/10/1
f 381/12/1 382/14/1 383/15/1 384/13/1
f 385/11/1 386/10/1 387/16/1 388/17/1
f 389/10/1 390/13/1 391/18/1 392/16/1
f 393/13/1 394/15/1 395/19/1 396/18/1
f 397/7/1 398/20/1 399/9/1 400/8/1
f 401/20/1 402/21/1 403/12/1 404/9/1
f 405/21/1 406/22/1 407/14/1 408/12/1
f 409/8/1 410/9/1 411/10/1 412/11/1
f 413/9/1 414/12/1 415/13/1 416/10/1
f 417/12/1 418/14/1 419/15/1 420/13/1
f 421/7/1 422/20/1 423/9/1 424/8/1
f 425/20/1 426/21/1 427/12/1 428/9/1
f 429/21/1 430/22/1 431/14/1 432/12/1
f 433/1/1 434/2/1 435/3/1 436/4/1
f 437/2/1 438/5/1 439/6/1 440/3/1
f 441/5/1 442/7/1 443/8/1 444/6/1
f 445/1/1 446/2/1 447/3/1 448/4/1
f 449/2/1 450/5/1 451/6/1 452/3/1
f 453/5/1 454/7/1 455/8/1 456/6/1
f 457/1/1 458/2/1 459/3/1 460/4/1
f 461/2/1 462/5/1 463/6/1 464/3/1
f 465/5/1 466/7/1 467/8/1 468/6/1

