# Tiled2Unity generated file. Do not modify by hand.
# Wavefront file for 'Mapka-las_mesh_0008.obj'

# Vertices (Count = 460)
v -11 -2 0
v -12 -2 0
v -12 -1 0
v -11 -1 0
v -12 -2 0
v -13 -2 0
v -13 -1 0
v -12 -1 0
v -13 -2 0
v -14 -2 0
v -14 -1 0
v -13 -1 0
v -11 -3 0
v -12 -3 0
v -12 -2 0
v -11 -2 0
v -12 -3 0
v -13 -3 0
v -13 -2 0
v -12 -2 0
v -13 -3 0
v -14 -3 0
v -14 -2 0
v -13 -2 0
v -22 -3 0
v -23 -3 0
v -23 -2 0
v -22 -2 0
v -23 -3 0
v -24 -3 0
v -24 -2 0
v -23 -2 0
v -24 -3 0
v -25 -3 0
v -25 -2 0
v -24 -2 0
v -3 -4 0
v -4 -4 0
v -4 -3 0
v -3 -3 0
v -4 -4 0
v -5 -4 0
v -5 -3 0
v -4 -3 0
v -5 -4 0
v -6 -4 0
v -6 -3 0
v -5 -3 0
v -16 -4 0
v -17 -4 0
v -17 -3 0
v -16 -3 0
v -17 -4 0
v -18 -4 0
v -18 -3 0
v -17 -3 0
v -18 -4 0
v -19 -4 0
v -19 -3 0
v -18 -3 0
v -22 -4 0
v -23 -4 0
v -23 -3 0
v -22 -3 0
v -23 -4 0
v -24 -4 0
v -24 -3 0
v -23 -3 0
v -24 -4 0
v -25 -4 0
v -25 -3 0
v -24 -3 0
v -3 -5 0
v -4 -5 0
v -4 -4 0
v -3 -4 0
v -4 -5 0
v -5 -5 0
v -5 -4 0
v -4 -4 0
v -5 -5 0
v -6 -5 0
v -6 -4 0
v -5 -4 0
v -16 -5 0
v -17 -5 0
v -17 -4 0
v -16 -4 0
v -17 -5 0
v -18 -5 0
v -18 -4 0
v -17 -4 0
v -18 -5 0
v -19 -5 0
v -19 -4 0
v -18 -4 0
v -26 -6 0
v -27 -6 0
v -27 -5 0
v -26 -5 0
v -1 -7 0
v -2 -7 0
v -2 -6 0
v -1 -6 0
v -2 -7 0
v -3 -7 0
v -3 -6 0
v -2 -6 0
v -3 -7 0
v -4 -7 0
v -4 -6 0
v -3 -6 0
v -11 -7 0
v -12 -7 0
v -12 -6 0
v -11 -6 0
v -12 -7 0
v -13 -7 0
v -13 -6 0
v -12 -6 0
v -13 -7 0
v -14 -7 0
v -14 -6 0
v -13 -6 0
v -25 -7 0
v -26 -7 0
v -26 -6 0
v -25 -6 0
v -26 -7 0
v -27 -7 0
v -27 -6 0
v -26 -6 0
v -27 -7 0
v -28 -7 0
v -28 -6 0
v -27 -6 0
v -1 -8 0
v -2 -8 0
v -2 -7 0
v -1 -7 0
v -2 -8 0
v -3 -8 0
v -3 -7 0
v -2 -7 0
v -3 -8 0
v -4 -8 0
v -4 -7 0
v -3 -7 0
v -11 -8 0
v -12 -8 0
v -12 -7 0
v -11 -7 0
v -12 -8 0
v -13 -8 0
v -13 -7 0
v -12 -7 0
v -13 -8 0
v -14 -8 0
v -14 -7 0
v -13 -7 0
v -7 -9 0
v -8 -9 0
v -8 -8 0
v -7 -8 0
v -8 -9 0
v -9 -9 0
v -9 -8 0
v -8 -8 0
v -9 -9 0
v -10 -9 0
v -10 -8 0
v -9 -8 0
v -7 -10 0
v -8 -10 0
v -8 -9 0
v -7 -9 0
v -8 -10 0
v -9 -10 0
v -9 -9 0
v -8 -9 0
v -9 -10 0
v -10 -10 0
v -10 -9 0
v -9 -9 0
v -26 -11 0
v -27 -11 0
v -27 -10 0
v -26 -10 0
v -27 -11 0
v -28 -11 0
v -28 -10 0
v -27 -10 0
v -28 -11 0
v -29 -11 0
v -29 -10 0
v -28 -10 0
v -26 -12 0
v -27 -12 0
v -27 -11 0
v -26 -11 0
v -27 -12 0
v -28 -12 0
v -28 -11 0
v -27 -11 0
v -28 -12 0
v -29 -12 0
v -29 -11 0
v -28 -11 0
v -3 -13 0
v -4 -13 0
v -4 -12 0
v -3 -12 0
v -4 -13 0
v -5 -13 0
v -5 -12 0
v -4 -12 0
v -5 -13 0
v -6 -13 0
v -6 -12 0
v -5 -12 0
v -25 -13 0
v -26 -13 0
v -26 -12 0
v -25 -12 0
v -26 -13 0
v -27 -13 0
v -27 -12 0
v -26 -12 0
v -27 -13 0
v -28 -13 0
v -28 -12 0
v -27 -12 0
v -3 -14 0
v -4 -14 0
v -4 -13 0
v -3 -13 0
v -4 -14 0
v -5 -14 0
v -5 -13 0
v -4 -13 0
v -5 -14 0
v -6 -14 0
v -6 -13 0
v -5 -13 0
v -25 -14 0
v -26 -14 0
v -26 -13 0
v -25 -13 0
v -26 -14 0
v -27 -14 0
v -27 -13 0
v -26 -13 0
v -27 -14 0
v -28 -14 0
v -28 -13 0
v -27 -13 0
v -22 -15 0
v -23 -15 0
v -23 -14 0
v -22 -14 0
v -23 -15 0
v -24 -15 0
v -24 -14 0
v -23 -14 0
v -24 -15 0
v -25 -15 0
v -25 -14 0
v -24 -14 0
v -14 -16 0
v -15 -16 0
v -15 -15 0
v -14 -15 0
v -15 -16 0
v -16 -16 0
v -16 -15 0
v -15 -15 0
v -22 -16 0
v -23 -16 0
v -23 -15 0
v -22 -15 0
v -23 -16 0
v -24 -16 0
v -24 -15 0
v -23 -15 0
v -24 -16 0
v -25 -16 0
v -25 -15 0
v -24 -15 0
v -14 -17 0
v -15 -17 0
v -15 -16 0
v -14 -16 0
v -15 -17 0
v -16 -17 0
v -16 -16 0
v -15 -16 0
v -10 -19 0
v -11 -19 0
v -11 -18 0
v -10 -18 0
v -11 -19 0
v -12 -19 0
v -12 -18 0
v -11 -18 0
v -12 -19 0
v -13 -19 0
v -13 -18 0
v -12 -18 0
v -16 -19 0
v -17 -19 0
v -17 -18 0
v -16 -18 0
v -17 -19 0
v -18 -19 0
v -18 -18 0
v -17 -18 0
v -18 -19 0
v -19 -19 0
v -19 -18 0
v -18 -18 0
v -10 -20 0
v -11 -20 0
v -11 -19 0
v -10 -19 0
v -11 -20 0
v -12 -20 0
v -12 -19 0
v -11 -19 0
v -16 -20 0
v -17 -20 0
v -17 -19 0
v -16 -19 0
v -17 -20 0
v -18 -20 0
v -18 -19 0
v -17 -19 0
v -18 -20 0
v -19 -20 0
v -19 -19 0
v -18 -19 0
v -12 -23 0
v -13 -23 0
v -13 -22 0
v -12 -22 0
v -13 -23 0
v -14 -23 0
v -14 -22 0
v -13 -22 0
v -14 -23 0
v -15 -23 0
v -15 -22 0
v -14 -22 0
v -12 -24 0
v -13 -24 0
v -13 -23 0
v -12 -23 0
v -13 -24 0
v -14 -24 0
v -14 -23 0
v -13 -23 0
v -14 -24 0
v -15 -24 0
v -15 -23 0
v -14 -23 0
v -4 -25 0
v -5 -25 0
v -5 -24 0
v -4 -24 0
v -5 -25 0
v -6 -25 0
v -6 -24 0
v -5 -24 0
v -6 -25 0
v -7 -25 0
v -7 -24 0
v -6 -24 0
v -22 -25 0
v -23 -25 0
v -23 -24 0
v -22 -24 0
v -23 -25 0
v -24 -25 0
v -24 -24 0
v -23 -24 0
v -24 -25 0
v -25 -25 0
v -25 -24 0
v -24 -24 0
v -25 -25 0
v -26 -25 0
v -26 -24 0
v -25 -24 0
v -26 -25 0
v -27 -25 0
v -27 -24 0
v -26 -24 0
v -27 -25 0
v -28 -25 0
v -28 -24 0
v -27 -24 0
v -4 -26 0
v -5 -26 0
v -5 -25 0
v -4 -25 0
v -5 -26 0
v -6 -26 0
v -6 -25 0
v -5 -25 0
v -6 -26 0
v -7 -26 0
v -7 -25 0
v -6 -25 0
v -16 -26 0
v -17 -26 0
v -17 -25 0
v -16 -25 0
v -17 -26 0
v -18 -26 0
v -18 -25 0
v -17 -25 0
v -18 -26 0
v -19 -26 0
v -19 -25 0
v -18 -25 0
v -22 -26 0
v -23 -26 0
v -23 -25 0
v -22 -25 0
v -23 -26 0
v -24 -26 0
v -24 -25 0
v -23 -25 0
v -24 -26 0
v -25 -26 0
v -25 -25 0
v -24 -25 0
v -25 -26 0
v -26 -26 0
v -26 -25 0
v -25 -25 0
v -26 -26 0
v -27 -26 0
v -27 -25 0
v -26 -25 0
v -27 -26 0
v -28 -26 0
v -28 -25 0
v -27 -25 0
v -16 -27 0
v -17 -27 0
v -17 -26 0
v -16 -26 0
v -17 -27 0
v -18 -27 0
v -18 -26 0
v -17 -26 0
v -18 -27 0
v -19 -27 0
v -19 -26 0
v -18 -26 0

# Texture cooridinates (Count = 25)
vt 0 0.3846154
vt 0.07692308 0.3846154
vt 0.07692308 0.4615384
vt 0 0.4615384
vt 0.1538462 0.3846154
vt 0.1538462 0.4615384
vt 0.2307692 0.3846154
vt 0.2307692 0.4615384
vt 0 0.3076923
vt 0.07692308 0.3076923
vt 0.1538462 0.3076923
vt 0.2307692 0.3076923
vt 0.3076923 0.3846154
vt 0.3076923 0.4615384
vt 0.3846154 0.3846154
vt 0.3846154 0.4615384
vt 0.4615385 0.3846154
vt 0.4615385 0.4615384
vt 0.3076923 0.3076923
vt 0.3846154 0.3076923
vt 0.4615385 0.3076923
vt 0 0.5384616
vt 0.07692308 0.5384616
vt 0.07692308 0.6153846
vt 0 0.6153846

# Normal
vn 0 0 -1

# Mesh description
g Mapka-las_mesh_0008

# Faces
f 1/1/1 2/2/1 3/3/1 4/4/1
f 5/2/1 6/5/1 7/6/1 8/3/1
f 9/5/1 10/7/1 11/8/1 12/6/1
f 13/9/1 14/10/1 15/2/1 16/1/1
f 17/10/1 18/11/1 19/5/1 20/2/1
f 21/11/1 22/12/1 23/7/1 24/5/1
f 25/7/1 26/13/1 27/14/1 28/8/1
f 29/13/1 30/15/1 31/16/1 32/14/1
f 33/15/1 34/17/1 35/18/1 36/16/1
f 37/1/1 38/2/1 39/3/1 40/4/1
f 41/2/1 42/5/1 43/6/1 44/3/1
f 45/5/1 46/7/1 47/8/1 48/6/1
f 49/7/1 50/13/1 51/14/1 52/8/1
f 53/13/1 54/15/1 55/16/1 56/14/1
f 57/15/1 58/17/1 59/18/1 60/16/1
f 61/12/1 62/19/1 63/13/1 64/7/1
f 65/19/1 66/20/1 67/15/1 68/13/1
f 69/20/1 70/21/1 71/17/1 72/15/1
f 73/9/1 74/10/1 75/2/1 76/1/1
f 77/10/1 78/11/1 79/5/1 80/2/1
f 81/11/1 82/12/1 83/7/1 84/5/1
f 85/12/1 86/19/1 87/13/1 88/7/1
f 89/19/1 90/20/1 91/15/1 92/13/1
f 93/20/1 94/21/1 95/17/1 96/15/1
f 97/22/1 98/23/1 99/24/1 100/25/1
f 101/1/1 102/2/1 103/3/1 104/4/1
f 105/22/1 106/23/1 107/24/1 108/25/1
f 109/5/1 110/7/1 111/8/1 112/6/1
f 113/7/1 114/13/1 115/14/1 116/8/1
f 117/13/1 118/15/1 119/16/1 120/14/1
f 121/15/1 122/17/1 123/18/1 124/16/1
f 125/9/1 126/10/1 127/2/1 128/1/1
f 129/10/1 130/11/1 131/5/1 132/2/1
f 133/11/1 134/12/1 135/7/1 136/5/1
f 137/9/1 138/10/1 139/2/1 140/1/1
f 141/10/1 142/11/1 143/5/1 144/2/1
f 145/11/1 146/12/1 147/7/1 148/5/1
f 149/12/1 150/19/1 151/13/1 152/7/1
f 153/19/1 154/20/1 155/15/1 156/13/1
f 157/20/1 158/21/1 159/17/1 160/15/1
f 161/7/1 162/13/1 163/14/1 164/8/1
f 165/13/1 166/15/1 167/16/1 168/14/1
f 169/15/1 170/17/1 171/18/1 172/16/1
f 173/12/1 174/19/1 175/13/1 176/7/1
f 177/19/1 178/20/1 179/15/1 180/13/1
f 181/20/1 182/21/1 183/17/1 184/15/1
f 185/7/1 186/13/1 187/14/1 188/8/1
f 189/13/1 190/15/1 191/16/1 192/14/1
f 193/15/1 194/17/1 195/18/1 196/16/1
f 197/12/1 198/19/1 199/13/1 200/7/1
f 201/19/1 202/20/1 203/15/1 204/13/1
f 205/20/1 206/21/1 207/17/1 208/15/1
f 209/7/1 210/13/1 211/14/1 212/8/1
f 213/13/1 214/15/1 215/16/1 216/14/1
f 217/15/1 218/17/1 219/18/1 220/16/1
f 221/1/1 222/2/1 223/3/1 224/4/1
f 225/2/1 226/5/1 227/6/1 228/3/1
f 229/5/1 230/7/1 231/8/1 232/6/1
f 233/12/1 234/19/1 235/13/1 236/7/1
f 237/19/1 238/20/1 239/15/1 240/13/1
f 241/20/1 242/21/1 243/17/1 244/15/1
f 245/9/1 246/10/1 247/2/1 248/1/1
f 249/10/1 250/11/1 251/5/1 252/2/1
f 253/11/1 254/12/1 255/7/1 256/5/1
f 257/7/1 258/13/1 259/14/1 260/8/1
f 261/13/1 262/15/1 263/16/1 264/14/1
f 265/15/1 266/17/1 267/18/1 268/16/1
f 269/1/1 270/2/1 271/3/1 272/4/1
f 273/2/1 274/5/1 275/6/1 276/3/1
f 277/12/1 278/19/1 279/13/1 280/7/1
f 281/19/1 282/20/1 283/15/1 284/13/1
f 285/20/1 286/21/1 287/17/1 288/15/1
f 289/9/1 290/10/1 291/2/1 292/1/1
f 293/10/1 294/11/1 295/5/1 296/2/1
f 297/1/1 298/2/1 299/3/1 300/4/1
f 301/2/1 302/5/1 303/6/1 304/3/1
f 305/5/1 306/7/1 307/8/1 308/6/1
f 309/7/1 310/13/1 311/14/1 312/8/1
f 313/13/1 314/15/1 315/16/1 316/14/1
f 317/15/1 318/17/1 319/18/1 320/16/1
f 321/9/1 322/10/1 323/2/1 324/1/1
f 325/10/1 326/11/1 327/5/1 328/2/1
f 329/12/1 330/19/1 331/13/1 332/7/1
f 333/19/1 334/20/1 335/15/1 336/13/1
f 337/20/1 338/21/1 339/17/1 340/15/1
f 341/7/1 342/13/1 343/14/1 344/8/1
f 345/13/1 346/15/1 347/16/1 348/14/1
f 349/15/1 350/17/1 351/18/1 352/16/1
f 353/12/1 354/19/1 355/13/1 356/7/1
f 357/19/1 358/20/1 359/15/1 360/13/1
f 361/20/1 362/21/1 363/17/1 364/15/1
f 365/7/1 366/13/1 367/14/1 368/8/1
f 369/13/1 370/15/1 371/16/1 372/14/1
f 373/15/1 374/17/1 375/18/1 376/16/1
f 377/1/1 378/2/1 379/3/1 380/4/1
f 381/2/1 382/5/1 383/6/1 384/3/1
f 385/5/1 386/7/1 387/8/1 388/6/1
f 389/1/1 390/2/1 391/3/1 392/4/1
f 393/2/1 394/5/1 395/6/1 396/3/1
f 397/5/1 398/7/1 399/8/1 400/6/1
f 401/12/1 402/19/1 403/13/1 404/7/1
f 405/19/1 406/20/1 407/15/1 408/13/1
f 409/20/1 410/21/1 411/17/1 412/15/1
f 413/1/1 414/2/1 415/3/1 416/4/1
f 417/2/1 418/5/1 419/6/1 420/3/1
f 421/5/1 422/7/1 423/8/1 424/6/1
f 425/9/1 426/10/1 427/2/1 428/1/1
f 429/10/1 430/11/1 431/5/1 432/2/1
f 433/11/1 434/12/1 435/7/1 436/5/1
f 437/9/1 438/10/1 439/2/1 440/1/1
f 441/10/1 442/11/1 443/5/1 444/2/1
f 445/11/1 446/12/1 447/7/1 448/5/1
f 449/9/1 450/10/1 451/2/1 452/1/1
f 453/10/1 454/11/1 455/5/1 456/2/1
f 457/11/1 458/12/1 459/7/1 460/5/1

